# xmcd
#
# Track frame offsets:
#	150
#	13285
#	24792
#	42072
#	58110
#	71645
#	86675
#	100660
#	117387
#	139960
#	164220
#	184085
#	214600
#
# Disc length: 2924 seconds
#
# Revision: 1
# Processed by: cddbd v1.5.1PL0 Copyright (c) Steve Scherf et al.
# Submitted via: dBpowerAMP V4.0
#
DISCID=b70b6a0d
DTITLE=Various Artist - Got Harp If You Want It
DYEAR=2001
DGENRE=Blues
TTITLE0=That's That - Rick Estrin
TTITLE1=Don't Boss Me - Rick Estrin
TTITLE2=Bombshell Baby - Mark Hummel
TTITLE3=Sundown Blues - Charlie Musselwhite
TTITLE4=Keep On Rubbin' - Charlie Musselwhite
TTITLE5=Mojo Man - Dave Welhausen
TTITLE6=Steady - Paul Durkett
TTITLE7=Give Me Back That Wig - William Clarke
TTITLE8=Highway 51 - Charlie Musselwhite
TTITLE9=My Babe - Andy Just
TTITLE10=Summertime - Mark Ford
TTITLE11=Temperature - Ralph Shine
TTITLE12=Getting Back On The Tracks - Ralph Shine
EXTD=
EXTT0=
EXTT1=
EXTT2=
EXTT3=
EXTT4=
EXTT5=
EXTT6=
EXTT7=
EXTT8=
EXTT9=
EXTT10=
EXTT11=
EXTT12=
PLAYORDER=
